<svg width="16" height="17" viewBox="0 0 16 17" fill="none" xmlns="http://www.w3.org/2000/svg">
<g opacity="0.5">
<path d="M7.99987 0.500268C5.87809 0.500268 3.84332 1.34309 2.34307 2.84334C0.842826 4.34377 0 6.37858 0 8.50013C0 10.6217 0.842826 12.6567 2.34307 14.1569C3.8435 15.6572 5.87831 16.5 7.99987 16.5C10.1214 16.5 12.1564 15.6572 13.6567 14.1569C15.1569 12.6565 15.9997 10.6217 15.9997 8.50013C15.9997 7.09578 15.63 5.7162 14.9279 4.49998C14.2258 3.2838 13.2159 2.27391 11.9998 1.5718C10.7836 0.869694 9.40395 0.5 7.9996 0.5L7.99987 0.500268ZM7.99987 14.5005V14.5003C6.40855 14.5003 4.88231 13.8682 3.75716 12.743C2.63201 11.6179 1.99986 10.0916 1.99986 8.50032C1.99986 6.90904 2.63201 5.38276 3.75716 4.25761C4.88231 3.13246 6.40859 2.50031 7.99987 2.50031C9.59114 2.50031 11.1174 3.13246 12.2426 4.25761C13.3677 5.38276 13.9999 6.90904 13.9999 8.50032C13.9999 10.0916 13.3677 11.6179 12.2426 12.743C11.1174 13.8682 9.59114 14.5003 7.99987 14.5003V14.5005Z" fill="#091430"/>
<path d="M8.99988 12.5005L6.99981 12.5005L6.99981 8.00047L8.99988 8.00047L8.99988 12.5005Z" fill="#091430"/>
<path d="M6.99991 5.50044C6.99991 4.94815 7.44755 4.50033 7.99983 4.50033C8.55212 4.50033 8.99976 4.94815 8.99976 5.50044C8.99976 6.05272 8.55212 6.50037 7.99983 6.50037C7.44755 6.50037 6.99991 6.05272 6.99991 5.50044Z" fill="#091430"/>
</g>
</svg>
